{
  "accessors": [
    {
      "bufferView": 3,
      "componentType": 5126,
      "count": 7768,
      "max": [
        0.004060054197907448,
        0.2228199988603592,
        0.4444258511066437
      ],
      "min": [
        -1.7920809984207153,
        -0.15548600256443024,
        -0.4376641809940338
      ],
      "type": "VEC3"
    },
    {
      "bufferView": 3,
      "byteOffset": 93216,
      "componentType": 5126,
      "count": 7768,
      "max": [
        0.9999883770942688,
        0.9996844530105591,
        0.9999768733978271
      ],
      "min": [
        -0.9992551803588867,
        -0.9999920725822449,
        -0.9999364614486694
      ],
      "type": "VEC3"
    },
    {
      "bufferView": 4,
      "componentType": 5126,
      "count": 7768,
      "max": [
        0.9999908208847046,
        0.9999892711639404,
        0.999140739440918,
        1.0
      ],
      "min": [
        -0.9999028444290161,
        -0.9999990463256836,
        -0.9999999403953552,
        -1.0
      ],
      "type": "VEC4"
    },
    {
      "bufferView": 2,
      "componentType": 5126,
      "count": 7768,
      "max": [
        0.9935719966888428,
        0.9934930205345154
      ],
      "min": [
        0.002937000012025237,
        0.002937000012025237
      ],
      "type": "VEC2"
    },
    {
      "bufferView": 1,
      "componentType": 5125,
      "count": 30204,
      "type": "SCALAR"
    },
    {
      "bufferView": 3,
      "byteOffset": 186432,
      "componentType": 5126,
      "count": 8897,
      "max": [
        -0.7894698977470398,
        0.14816300570964813,
        0.46756985783576965
      ],
      "min": [
        -1.7920809984207153,
        -0.1029830053448677,
        -0.46757015585899353
      ],
      "type": "VEC3"
    },
    {
      "bufferView": 3,
      "byteOffset": 293196,
      "componentType": 5126,
      "count": 8897,
      "max": [
        0.9997777938842773,
        0.9994598627090454,
        0.9999255537986755
      ],
      "min": [
        -0.9995915293693542,
        -0.9992955327033997,
        -0.9999253749847412
      ],
      "type": "VEC3"
    },
    {
      "bufferView": 4,
      "byteOffset": 124288,
      "componentType": 5126,
      "count": 8897,
      "max": [
        0.9999358654022217,
        0.9999282956123352,
        0.9999505281448364,
        1.0
      ],
      "min": [
        -0.9997415542602539,
        -0.9998977780342102,
        -0.9999985098838806,
        -1.0
      ],
      "type": "VEC4"
    },
    {
      "bufferView": 2,
      "byteOffset": 62144,
      "componentType": 5126,
      "count": 8897,
      "max": [
        0.9969760179519653,
        0.9970430135726929
      ],
      "min": [
        0.002937000012025237,
        0.002937000012025237
      ],
      "type": "VEC2"
    },
    {
      "bufferView": 1,
      "byteOffset": 120816,
      "componentType": 5125,
      "count": 31674,
      "type": "SCALAR"
    },
    {
      "bufferView": 3,
      "byteOffset": 399960,
      "componentType": 5126,
      "count": 4515,
      "max": [
        -1.5151549577713013,
        0.13652999699115753,
        0.10726974159479141
      ],
      "min": [
        -1.7981280088424683,
        -0.1041330024600029,
        -0.10908927023410797
      ],
      "type": "VEC3"
    },
    {
      "bufferView": 3,
      "byteOffset": 454140,
      "componentType": 5126,
      "count": 4515,
      "max": [
        0.9447078108787537,
        0.999609649181366,
        0.9995197653770447
      ],
      "min": [
        -0.9995657801628113,
        -0.9995018243789673,
        -0.9999802708625793
      ],
      "type": "VEC3"
    },
    {
      "bufferView": 2,
      "byteOffset": 133320,
      "componentType": 5126,
      "count": 4515,
      "max": [
        1.0068819522857666,
        1.0038800239562988
      ],
      "min": [
        0.000493000028654933,
        0.0023360000923275948
      ],
      "type": "VEC2"
    },
    {
      "bufferView": 1,
      "byteOffset": 247512,
      "componentType": 5125,
      "count": 11853,
      "type": "SCALAR"
    },
    {
      "bufferView": 5,
      "componentType": 5126,
      "count": 66,
      "max": [
        100.00001525878906,
        0.9996259808540344,
        0.9106073379516602,
        0.0,
        0.9958583116531372,
        100.00001525878906,
        1.0000001192092896,
        0.0,
        0.998632550239563,
        0.9141002297401428,
        100.00000762939453,
        0.0,
        0.6193390488624573,
        1.0956873893737793,
        1.348300576210022,
        1.0
      ],
      "min": [
        -0.5773378610610962,
        -1.000000238418579,
        -0.9995079636573792,
        0.0,
        -0.9982562065124512,
        -0.09772708266973495,
        -0.0538787804543972,
        0.0,
        -1.0000001192092896,
        -0.9140999913215637,
        -0.9998125433921814,
        0.0,
        -0.6015263795852661,
        -1.5620417594909668,
        -0.13967566192150116,
        1.0
      ],
      "type": "MAT4"
    },
    {
      "bufferView": 0,
      "componentType": 5123,
      "count": 7768,
      "type": "VEC4"
    },
    {
      "bufferView": 4,
      "byteOffset": 266640,
      "componentType": 5126,
      "count": 7768,
      "max": [
        1.0,
        0.49963122606277466,
        0.2995959222316742,
        0.2086489200592041
      ],
      "min": [
        0.28194981813430786,
        0.0,
        0.0,
        0.0
      ],
      "type": "VEC4"
    },
    {
      "bufferView": 0,
      "byteOffset": 62144,
      "componentType": 5123,
      "count": 8897,
      "type": "VEC4"
    },
    {
      "bufferView": 4,
      "byteOffset": 390928,
      "componentType": 5126,
      "count": 8897,
      "max": [
        1.0,
        0.4999498724937439,
        0.3306606411933899,
        0.15101836621761322
      ],
      "min": [
        0.3385929763317108,
        0.0,
        0.0,
        0.0
      ],
      "type": "VEC4"
    },
    {
      "bufferView": 0,
      "byteOffset": 133320,
      "componentType": 5123,
      "count": 4515,
      "type": "VEC4"
    },
    {
      "bufferView": 4,
      "byteOffset": 533280,
      "componentType": 5126,
      "count": 4515,
      "max": [
        1.0,
        0.48512202501296997,
        0.3303028345108032,
        0.0
      ],
      "min": [
        0.33776384592056274,
        0.0,
        0.0,
        0.0
      ],
      "type": "VEC4"
    }
  ],
  "asset": {
    "extras": {
      "author": "Chenuka Wijesundara (https://sketchfab.com/ChenukaWijesundara)",
      "license": "CC-BY-4.0 (http://creativecommons.org/licenses/by/4.0/)",
      "source": "https://sketchfab.com/3d-models/game-ready-pirate-hunter-viking-medieval-man-9f51d396733b451bab550b406b067805",
      "title": "Game ready Pirate Hunter / Viking / Medieval man"
    },
    "generator": "Sketchfab-12.65.0",
    "version": "2.0"
  },
  "bufferViews": [
    {
      "buffer": 0,
      "byteLength": 169440,
      "byteStride": 8,
      "name": "shortBufferViews",
      "target": 34962
    },
    {
      "buffer": 0,
      "byteLength": 294924,
      "byteOffset": 169440,
      "name": "floatBufferViews",
      "target": 34963
    },
    {
      "buffer": 0,
      "byteLength": 169440,
      "byteOffset": 464364,
      "byteStride": 8,
      "name": "floatBufferViews",
      "target": 34962
    },
    {
      "buffer": 0,
      "byteLength": 508320,
      "byteOffset": 633804,
      "byteStride": 12,
      "name": "floatBufferViews",
      "target": 34962
    },
    {
      "buffer": 0,
      "byteLength": 605520,
      "byteOffset": 1142124,
      "byteStride": 16,
      "name": "floatBufferViews",
      "target": 34962
    },
    {
      "buffer": 0,
      "byteLength": 4224,
      "byteOffset": 1747644,
      "name": "floatBufferViews"
    }
  ],
  "buffers": [
    {
      "byteLength": 1751868,
      "uri": "scene.bin"
    }
  ],
  "images": [
    {
      "uri": "textures/Material.001_baseColor.png"
    },
    {
      "uri": "textures/Material.001_metallicRoughness.png"
    },
    {
      "uri": "textures/Material.001_normal.png"
    },
    {
      "uri": "textures/Material.003_normal.png"
    },
    {
      "uri": "textures/Material.002_baseColor.png"
    }
  ],
  "materials": [
    {
      "doubleSided": true,
      "name": "Material.001",
      "normalTexture": {
        "index": 2
      },
      "pbrMetallicRoughness": {
        "baseColorTexture": {
          "index": 0
        },
        "metallicFactor": 0.0,
        "metallicRoughnessTexture": {
          "index": 1
        }
      }
    },
    {
      "doubleSided": true,
      "name": "Material.003",
      "normalTexture": {
        "index": 3
      },
      "pbrMetallicRoughness": {
        "baseColorTexture": {
          "index": 0
        },
        "metallicFactor": 0.0,
        "metallicRoughnessTexture": {
          "index": 1
        }
      }
    },
    {
      "alphaCutoff": 0.30513711611827304,
      "alphaMode": "MASK",
      "doubleSided": true,
      "name": "Material.002",
      "pbrMetallicRoughness": {
        "baseColorTexture": {
          "index": 4
        },
        "metallicFactor": 0.0,
        "roughnessFactor": 0.8211145618000169
      }
    }
  ],
  "meshes": [
    {
      "name": "Gambeson_Plane.017_Material.001_0",
      "primitives": [
        {
          "attributes": {
            "JOINTS_0": 15,
            "NORMAL": 1,
            "POSITION": 0,
            "TANGENT": 2,
            "TEXCOORD_0": 3,
            "WEIGHTS_0": 16
          },
          "indices": 4,
          "material": 0,
          "mode": 4
        }
      ]
    },
    {
      "name": "Gambeson_Plane.017_Material.003_0",
      "primitives": [
        {
          "attributes": {
            "JOINTS_0": 17,
            "NORMAL": 6,
            "POSITION": 5,
            "TANGENT": 7,
            "TEXCOORD_0": 8,
            "WEIGHTS_0": 18
          },
          "indices": 9,
          "material": 1,
          "mode": 4
        }
      ]
    },
    {
      "name": "EdwardKenwayHair.002_Mesh.013_Material.002_0",
      "primitives": [
        {
          "attributes": {
            "JOINTS_0": 19,
            "NORMAL": 11,
            "POSITION": 10,
            "TEXCOORD_0": 12,
            "WEIGHTS_0": 20
          },
          "indices": 13,
          "material": 2,
          "mode": 4
        }
      ]
    }
  ],
  "nodes": [
    {
      "children": [
        1
      ],
      "matrix": [
        0.9938182234764099,
        -0.11101837456226349,
        -0.000563891488127435,
        0.0,
        -1.5764299587939234e-16,
        -0.005079197231680377,
        0.9999871253967285,
        0.0,
        -0.1110198050737381,
        -0.9938053488731384,
        -0.005047798622399789,
        0.0,
        -0.09351377934217453,
        -1.6794148683547974,
        -0.004106962587684766,
        1.0
      ],
      "name": "Sketchfab_model"
    },
    {
      "children": [
        2
      ],
      "matrix": [
        0.009999999776482582,
        0.0,
        0.0,
        0.0,
        0.0,
        -0.009999999776482582,
        0.0,
        0.0,
        0.0,
        0.0,
        -0.009999999776482582,
        0.0,
        0.0,
        0.0,
        0.0,
        1.0
      ],
      "name": "7421b21d077d47f7a171337b811ade4c.fbx"
    },
    {
      "children": [
        3
      ],
      "name": "RootNode"
    },
    {
      "children": [
        4
      ],
      "matrix": [
        -4.371138984105016e-06,
        -99.99999999999973,
        -5.960463766996327e-06,
        0.0,
        -1.6292068227841128e-05,
        -5.960463056453591e-06,
        99.9999999999985,
        0.0,
        -99.99999999999858,
        4.371139955550163e-06,
        -1.6292067961387602e-05,
        0.0,
        0.0,
        0.0,
        0.0,
        1.0
      ],
      "name": "Armature"
    },
    {
      "children": [
        5,
        72,
        73,
        75,
        71,
        74
      ],
      "name": "Object_4"
    },
    {
      "children": [
        6
      ],
      "name": "_rootJoint"
    },
    {
      "children": [
        7,
        61,
        66
      ],
      "name": "mixamorig:Hips_01",
      "rotation": [
        -4.171493856119923e-06,
        5.154970494913869e-06,
        -0.00016256453818641603,
        1.0
      ],
      "scale": [
        1.0000001192092896,
        1.0000001192092896,
        1.0
      ],
      "translation": [
        1.9030645489692688e-05,
        0.9851726293563843,
        0.0022774338722229004
      ]
    },
    {
      "children": [
        8
      ],
      "name": "mixamorig:Spine_02",
      "rotation": [
        -0.04007833078503609,
        -1.1658857147267554e-05,
        0.00016223853162955493,
        0.9991965293884277
      ],
      "scale": [
        0.9999999403953552,
        0.9999999403953552,
        0.9999999403953552
      ],
      "translation": [
        -3.2730440580053255e-10,
        0.09901423007249832,
        -0.007956652902066708
      ]
    },
    {
      "children": [
        9
      ],
      "name": "mixamorig:Spine1_03",
      "rotation": [
        5.2154067731180476e-08,
        6.373749528165717e-08,
        -6.834532939592464e-13,
        1.0
      ],
      "translation": [
        -5.137001934940599e-12,
        0.11588883399963379,
        -4.660676289347521e-09
      ]
    },
    {
      "children": [
        10,
        13,
        37
      ],
      "name": "mixamorig:Spine2_04",
      "rotation": [
        1.11758780008131e-08,
        1.2281816452741623e-08,
        -1.887379141862766e-15,
        1.0
      ],
      "translation": [
        -3.525624236999647e-12,
        0.13244466483592987,
        -5.585477413916351e-09
      ]
    },
    {
      "children": [
        11
      ],
      "name": "mixamorig:Neck_05",
      "rotation": [
        0.04008238762617111,
        -4.2979646508456426e-08,
        -2.818190299180845e-11,
        0.999196469783783
      ],
      "scale": [
        1.0,
        0.9999999403953552,
        1.0
      ],
      "translation": [
        -3.737454790098127e-12,
        0.14900027215480804,
        -3.7215750481323084e-09
      ]
    },
    {
      "children": [
        12
      ],
      "name": "mixamorig:Head_06",
      "rotation": [
        7.735867058045187e-09,
        5.3344500244487635e-15,
        -3.724532194568668e-15,
        1.0
      ],
      "translation": [
        1.0226395286139223e-09,
        0.08384215831756592,
        0.02348979003727436
      ]
    },
    {
      "name": "mixamorig:HeadTop_End_07",
      "rotation": [
        -3.5776571050312456e-15,
        3.615103161079937e-15,
        -3.704336811523757e-15,
        1.0
      ],
      "translation": [
        2.835405688017545e-09,
        0.23185276985168457,
        0.06495747715234756
      ]
    },
    {
      "children": [
        14
      ],
      "name": "mixamorig:LeftShoulder_08",
      "rotation": [
        -0.5437719821929932,
        -0.44853919744491577,
        0.5514123439788818,
        -0.4461715519428253
      ],
      "scale": [
        0.9999998211860657,
        0.9999999403953552,
        0.9999999403953552
      ],
      "translation": [
        0.06247635930776596,
        0.12111123651266098,
        -0.001776534249074757
      ]
    },
    {
      "children": [
        15
      ],
      "name": "mixamorig:LeftArm_09",
      "rotation": [
        -0.10031252354383469,
        0.02101929485797882,
        0.0031512738205492496,
        0.9947290420532227
      ],
      "scale": [
        1.0,
        0.9999999403953552,
        1.0
      ],
      "translation": [
        -7.916241884231567e-09,
        0.14075103402137756,
        -1.0244548320770264e-07
      ]
    },
    {
      "children": [
        16
      ],
      "name": "mixamorig:LeftForeArm_010",
      "rotation": [
        -7.172980076575186e-07,
        0.005069618113338947,
        -5.0706677967582436e-08,
        0.9999872446060181
      ],
      "scale": [
        0.9999998807907104,
        0.9999996423721313,
        0.9999997019767761
      ],
      "translation": [
        2.9568951731562265e-09,
        0.24819986522197723,
        1.6847957340360153e-07
      ]
    },
    {
      "children": [
        17,
        21,
        25,
        29,
        33
      ],
      "name": "mixamorig:LeftHand_011",
      "rotation": [
        0.028854984790086746,
        0.011597715318202972,
        -0.04756621643900871,
        0.9983838796615601
      ],
      "translation": [
        2.2715482828061795e-09,
        0.22996929287910461,
        -1.000212250801269e-07
      ]
    },
    {
      "children": [
        18
      ],
      "name": "mixamorig:LeftHandThumb1_012",
      "rotation": [
        0.20131589472293854,
        0.056468673050403595,
        0.20168694853782654,
        0.956872820854187
      ],
      "scale": [
        0.9999998807907104,
        1.0000001192092896,
        1.000000238418579
      ],
      "translation": [
        -0.026668665930628777,
        0.03670647740364075,
        0.015232146717607975
      ]
    },
    {
      "children": [
        19
      ],
      "name": "mixamorig:LeftHandThumb2_013",
      "rotation": [
        0.00019532859732862562,
        -0.002844893839210272,
        0.10451081395149231,
        0.9945196509361267
      ],
      "scale": [
        0.9999999403953552,
        1.0,
        0.9999998211860657
      ],
      "translation": [
        -0.0065946257673203945,
        0.03771613910794258,
        3.6263372749090195e-08
      ]
    },
    {
      "children": [
        20
      ],
      "name": "mixamorig:LeftHandThumb3_014",
      "rotation": [
        -0.0008699399186298251,
        -0.008063236251473427,
        0.07136581093072891,
        0.9974173307418823
      ],
      "scale": [
        1.0000001192092896,
        0.9999997019767761,
        0.9999998211860657
      ],
      "translation": [
        0.0013343486934900284,
        0.035960663110017776,
        -2.2817403078079224e-08
      ]
    },
    {
      "name": "mixamorig:LeftHandThumb4_015",
      "rotation": [
        2.0489094865183688e-08,
        2.498000481917622e-16,
        5.960463766996327e-08,
        1.0
      ],
      "scale": [
        1.0000001192092896,
        1.0,
        1.000000238418579
      ],
      "translation": [
        0.005260230973362923,
        0.029255883768200874,
        -5.168840289115906e-08
      ]
    },
    {
      "children": [
        22
      ],
      "name": "mixamorig:LeftHandIndex1_016",
      "rotation": [
        -0.029261305928230286,
        -0.003521721577271819,
        0.05706103518605232,
        0.9979355931282043
      ],
      "scale": [
        1.0,
        0.9999998807907104,
        1.0000001192092896
      ],
      "translation": [
        -0.03474561125040054,
        0.11012006551027298,
        -0.00027538446011021733
      ]
    },
    {
      "children": [
        23
      ],
      "name": "mixamorig:LeftHandIndex2_017",
      "rotation": [
        1.0195572940574493e-05,
        0.0013420063769444823,
        -0.011512041091918945,
        0.9999328255653381
      ],
      "scale": [
        1.0000001192092896,
        1.0000001192092896,
        1.0000001192092896
      ],
      "translation": [
        0.0005941842682659626,
        0.030764104798436165,
        -1.0018447937909514e-07
      ]
    },
    {
      "children": [
        24
      ],
      "name": "mixamorig:LeftHandIndex3_018",
      "rotation": [
        9.093790140468627e-06,
        -0.0008940914995037019,
        -0.006422823760658503,
        0.9999789595603943
      ],
      "scale": [
        1.0,
        0.9999999403953552,
        0.9999998807907104
      ],
      "translation": [
        -0.0001475431490689516,
        0.028236577287316322,
        -9.484369911660906e-08
      ]
    },
    {
      "name": "mixamorig:LeftHandIndex4_019",
      "rotation": [
        7.818868219544584e-09,
        1.3856736202910724e-08,
        -6.950813258299604e-10,
        1.0
      ],
      "scale": [
        1.0,
        1.0000001192092896,
        1.0000001192092896
      ],
      "translation": [
        -0.00044664833694696426,
        0.02439008466899395,
        -5.6432554629282095e-08
      ]
    },
    {
      "children": [
        26
      ],
      "name": "mixamorig:LeftHandMiddle1_020",
      "rotation": [
        -0.02917894348502159,
        -0.0056099239736795425,
        0.056311387568712234,
        0.9979711174964905
      ],
      "translation": [
        -0.010600889101624489,
        0.11171405762434006,
        -0.0065713743679225445
      ]
    },
    {
      "children": [
        27
      ],
      "name": "mixamorig:LeftHandMiddle2_021",
      "rotation": [
        7.455410923284944e-06,
        0.001271422952413559,
        -0.012091650627553463,
        0.9999260902404785
      ],
      "scale": [
        0.9999998807907104,
        0.9999998211860657,
        0.9999998807907104
      ],
      "translation": [
        0.0006082719191908836,
        0.03361416608095169,
        2.5944700610125437e-08
      ]
    },
    {
      "children": [
        28
      ],
      "name": "mixamorig:LeftHandMiddle3_022",
      "rotation": [
        8.177583367796615e-06,
        -0.0007720654830336571,
        -0.00413441751152277,
        0.9999911785125732
      ],
      "scale": [
        0.9999998807907104,
        1.0,
        0.9999998807907104
      ],
      "translation": [
        -0.0001933558378368616,
        0.031589727848768234,
        -1.5826799426577054e-08
      ]
    },
    {
      "name": "mixamorig:LeftHandMiddle4_023",
      "rotation": [
        5.2891206081540076e-08,
        -5.509454226171329e-09,
        -1.1087877282989211e-09,
        1.0
      ],
      "scale": [
        1.0,
        1.0,
        1.0000001192092896
      ],
      "translation": [
        -0.00041491398587822914,
        0.027410343289375305,
        -1.0133339856110979e-07
      ]
    },
    {
      "children": [
        30
      ],
      "name": "mixamorig:LeftHandRing1_024",
      "rotation": [
        -0.028583358973264694,
        -0.016171520575881004,
        0.04407740756869316,
        0.998488187789917
      ],
      "scale": [
        0.9999999403953552,
        0.9999999403953552,
        0.9999999403953552
      ],
      "translation": [
        0.014329977333545685,
        0.12186376750469208,
        -0.002745717065408826
      ]
    },
    {
      "children": [
        31
      ],
      "name": "mixamorig:LeftHandRing2_025",
      "rotation": [
        8.055436637732782e-07,
        -0.0003961711481679231,
        0.005689226556569338,
        0.9999837279319763
      ],
      "scale": [
        1.0,
        0.9999999403953552,
        0.9999999403953552
      ],
      "translation": [
        -0.0001895492896437645,
        0.0276494100689888,
        7.46915702620754e-08
      ]
    },
    {
      "children": [
        32
      ],
      "name": "mixamorig:LeftHandRing3_026",
      "rotation": [
        1.3114438388583949e-06,
        0.0001406146475346759,
        0.0002593763347249478,
        1.0
      ],
      "scale": [
        1.0,
        1.0,
        0.9999998211860657
      ],
      "translation": [
        8.209352381527424e-05,
        0.024218641221523285,
        7.791823009029031e-08
      ]
    },
    {
      "name": "mixamorig:LeftHandRing4_027",
      "rotation": [
        2.790897468685216e-08,
        1.072632915821714e-08,
        -4.677076503867283e-10,
        1.0
      ],
      "scale": [
        1.0,
        1.0000001192092896,
        1.0000003576278687
      ],
      "translation": [
        0.00010744715109467506,
        0.021481089293956757,
        -2.6762154448078945e-07
      ]
    },
    {
      "children": [
        34
      ],
      "name": "mixamorig:LeftHandPinky1_028",
      "rotation": [
        -0.028091667219996452,
        -0.02237759903073311,
        0.035981010645627975,
        0.9987069964408875
      ],
      "scale": [
        0.9999999403953552,
        0.9999999403953552,
        1.0
      ],
      "translation": [
        0.031016593798995018,
        0.09674909710884094,
        -0.0019106108229607344
      ]
    },
    {
      "children": [
        35
      ],
      "name": "mixamorig:LeftHandPinky2_029",
      "rotation": [
        1.7072279661078937e-05,
        -0.0017607754562050104,
        0.014048000797629356,
        0.9998998641967773
      ],
      "scale": [
        1.0000001192092896,
        1.0,
        0.9999999403953552
      ],
      "translation": [
        -0.0007133353501558304,
        0.029415128752589226,
        -7.752987585263327e-08
      ]
    },
    {
      "children": [
        36
      ],
      "name": "mixamorig:LeftHandPinky3_030",
      "rotation": [
        3.577836832846515e-05,
        0.002197403460741043,
        0.012204048223793507,
        0.9999231100082397
      ],
      "scale": [
        1.0,
        0.9999998211860657,
        0.9999998807907104
      ],
      "translation": [
        0.000129408435896039,
        0.023347392678260803,
        1.698367668723222e-08
      ]
    },
    {
      "name": "mixamorig:LeftHandPinky4_031",
      "rotation": [
        -2.582823199759332e-08,
        -4.132870046191783e-09,
        8.905772119760513e-09,
        1.0
      ],
      "scale": [
        1.0000001192092896,
        0.9999999403953552,
        0.9999999403953552
      ],
      "translation": [
        0.0005839429795742035,
        0.020938362926244736,
        6.045524969522376e-08
      ]
    },
    {
      "children": [
        38
      ],
      "name": "mixamorig:RightShoulder_032",
      "rotation": [
        0.5389499068260193,
        -0.4510243535041809,
        0.5557403564453125,
        0.4441428780555725
      ],
      "scale": [
        0.9999998211860657,
        0.9999997019767761,
        0.9999997019767761
      ],
      "translation": [
        -0.06247636303305626,
        0.1211855560541153,
        -0.0026997446548193693
      ]
    },
    {
      "children": [
        39
      ],
      "name": "mixamorig:RightArm_033",
      "rotation": [
        -0.09972476959228516,
        -0.001895369729027152,
        -0.012142153456807137,
        0.9949391484260559
      ],
      "scale": [
        1.0,
        1.0,
        0.9999999403953552
      ],
      "translation": [
        4.656612873077393e-10,
        0.14075106382369995,
        -1.327134668827057e-07
      ]
    },
    {
      "children": [
        40
      ],
      "name": "mixamorig:RightForeArm_034",
      "rotation": [
        -2.2270852184647083e-07,
        -0.003999623935669661,
        2.6939556363458905e-08,
        0.9999920129776001
      ],
      "scale": [
        1.0000001192092896,
        1.000000238418579,
        1.000000238418579
      ],
      "translation": [
        1.1458581639089971e-08,
        0.24836848676204681,
        1.768738684404525e-07
      ]
    },
    {
      "children": [
        41,
        45,
        49,
        53,
        57
      ],
      "name": "mixamorig:RightHand_035",
      "rotation": [
        0.026044655591249466,
        -0.034909117966890335,
        0.04473615810275078,
        0.9980489611625671
      ],
      "scale": [
        0.9999998807907104,
        1.0,
        0.9999999403953552
      ],
      "translation": [
        -1.8260948309034575e-09,
        0.22890233993530273,
        2.4944029064499773e-08
      ]
    },
    {
      "children": [
        42
      ],
      "name": "mixamorig:RightHandThumb1_036",
      "rotation": [
        0.204237699508667,
        -0.05365171283483505,
        -0.17602404952049255,
        0.9614697098731995
      ],
      "scale": [
        0.9999998211860657,
        0.9999998211860657,
        0.9999997019767761
      ],
      "translation": [
        0.027735954150557518,
        0.03882637992501259,
        0.015965191647410393
      ]
    },
    {
      "children": [
        43
      ],
      "name": "mixamorig:RightHandThumb2_037",
      "rotation": [
        0.0002538801927585155,
        0.0023522416595369577,
        -0.11012239009141922,
        0.993915319442749
      ],
      "scale": [
        1.0,
        1.0,
        0.9999999403953552
      ],
      "translation": [
        0.008662431500852108,
        0.03930915519595146,
        3.67872416973114e-08
      ]
    },
    {
      "children": [
        44
      ],
      "name": "mixamorig:RightHandThumb3_038",
      "rotation": [
        -0.0010733753442764282,
        0.006940281484276056,
        -0.15007613599300385,
        0.9886496067047119
      ],
      "scale": [
        1.0000001192092896,
        1.0,
        1.0
      ],
      "translation": [
        -0.0001003611832857132,
        0.03533794358372688,
        2.2212043404579163e-07
      ]
    },
    {
      "name": "mixamorig:RightHandThumb4_039",
      "rotation": [
        3.725290742551124e-09,
        -3.7252898543727042e-09,
        1.4901161193847656e-08,
        1.0
      ],
      "scale": [
        1.0,
        0.9999999403953552,
        1.0000001192092896
      ],
      "translation": [
        -0.008561983704566956,
        0.027407092973589897,
        -5.122274160385132e-08
      ]
    },
    {
      "children": [
        46
      ],
      "name": "mixamorig:RightHandIndex1_040",
      "rotation": [
        -0.02747715823352337,
        0.0032992325723171234,
        -0.05661381408572197,
        0.9980125427246094
      ],
      "scale": [
        0.9999999403953552,
        0.9999998807907104,
        0.9999997019767761
      ],
      "translation": [
        0.035169027745723724,
        0.11235808581113815,
        8.849739970173687e-05
      ]
    },
    {
      "children": [
        47
      ],
      "name": "mixamorig:RightHandIndex2_041",
      "rotation": [
        1.3408093764155637e-05,
        -0.001491895760409534,
        0.016281502321362495,
        0.9998664259910583
      ],
      "scale": [
        1.000000238418579,
        1.0000001192092896,
        1.0000001192092896
      ],
      "translation": [
        -0.0008122371509671211,
        0.031386300921440125,
        2.526098796806764e-08
      ]
    },
    {
      "children": [
        48
      ],
      "name": "mixamorig:RightHandIndex3_042",
      "rotation": [
        3.3409152820240706e-05,
        0.0019003344932571054,
        0.010450133122503757,
        0.9999436140060425
      ],
      "scale": [
        1.0000001192092896,
        0.9999997019767761,
        0.9999999403953552
      ],
      "translation": [
        0.00015378976240754128,
        0.028222333639860153,
        1.2990994946449064e-09
      ]
    },
    {
      "name": "mixamorig:RightHandIndex4_043",
      "rotation": [
        -2.9051228978005383e-08,
        4.6192832892089086e-10,
        -8.57358095629479e-09,
        1.0
      ],
      "scale": [
        0.9999998807907104,
        0.9999997615814209,
        0.9999998211860657
      ],
      "translation": [
        0.0006584646180272102,
        0.02499312162399292,
        1.6429385141236708e-07
      ]
    },
    {
      "children": [
        50
      ],
      "name": "mixamorig:RightHandMiddle1_044",
      "rotation": [
        -0.027288643643260002,
        0.008402780629694462,
        -0.05294877663254738,
        0.9981890320777893
      ],
      "scale": [
        0.9999997019767761,
        0.9999999403953552,
        0.9999999403953552
      ],
      "translation": [
        0.0099844541400671,
        0.1137450709939003,
        -0.006323857698589563
      ]
    },
    {
      "children": [
        51
      ],
      "name": "mixamorig:RightHandMiddle2_045",
      "rotation": [
        4.119689492654288e-06,
        -0.0008892723708413541,
        0.013877831399440765,
        0.9999033212661743
      ],
      "scale": [
        1.0000001192092896,
        0.9999999403953552,
        0.9999999403953552
      ],
      "translation": [
        -0.0006163064390420914,
        0.033607903867959976,
        -1.99438773051952e-07
      ]
    },
    {
      "children": [
        52
      ],
      "name": "mixamorig:RightHandMiddle3_046",
      "rotation": [
        4.881224867858691e-06,
        0.00041744360351003706,
        0.002321782521903515,
        0.9999973177909851
      ],
      "scale": [
        1.0,
        1.000000238418579,
        1.0
      ],
      "translation": [
        0.0002636360004544258,
        0.030346641317009926,
        -6.293180376815144e-08
      ]
    },
    {
      "name": "mixamorig:RightHandMiddle4_047",
      "rotation": [
        1.085282974599977e-08,
        1.7384520489827082e-09,
        -2.367414708714932e-09,
        1.0
      ],
      "scale": [
        1.0,
        0.9999999403953552,
        1.0
      ],
      "translation": [
        0.0003526778891682625,
        0.027523305267095566,
        8.059032552409917e-09
      ]
    },
    {
      "children": [
        54
      ],
      "name": "mixamorig:RightHandRing1_048",
      "rotation": [
        -0.027348486706614494,
        0.005884503945708275,
        -0.04702521115541458,
        0.9985018968582153
      ],
      "scale": [
        0.9999998211860657,
        1.0,
        0.9999997615814209
      ],
      "translation": [
        -0.01277491357177496,
        0.10868987441062927,
        -0.003067120909690857
      ]
    },
    {
      "children": [
        55
      ],
      "name": "mixamorig:RightHandRing2_049",
      "rotation": [
        2.4031528482737485e-06,
        -0.0008040334796532989,
        0.0030673695728182793,
        0.9999949932098389
      ],
      "scale": [
        1.0,
        0.9999998807907104,
        1.0
      ],
      "translation": [
        -0.00015715323388576508,
        0.032552603632211685,
        1.4597208064515144e-07
      ]
    },
    {
      "children": [
        56
      ],
      "name": "mixamorig:RightHandRing3_050",
      "rotation": [
        8.871000432009168e-07,
        0.000260350905591622,
        0.0019530054414644837,
        0.999998152256012
      ],
      "scale": [
        1.0,
        1.0,
        0.9999999403953552
      ],
      "translation": [
        4.0055991121334955e-05,
        0.02841295301914215,
        -5.420474735728931e-08
      ]
    },
    {
      "name": "mixamorig:RightHandRing4_051",
      "rotation": [
        2.2861849302557857e-08,
        -1.8515832200804994e-09,
        3.315761221145408e-09,
        1.0
      ],
      "scale": [
        1.0000001192092896,
        1.000000238418579,
        1.000000238418579
      ],
      "translation": [
        0.00011711032129824162,
        0.02558326907455921,
        1.823236743803136e-07
      ]
    },
    {
      "children": [
        58
      ],
      "name": "mixamorig:RightHandPinky1_052",
      "rotation": [
        -0.026540536433458328,
        0.021426768973469734,
        -0.03910257667303085,
        0.9986529350280762
      ],
      "scale": [
        0.9999999403953552,
        0.9999999403953552,
        0.9999998807907104
      ],
      "translation": [
        -0.03237863630056381,
        0.09775971621274948,
        -0.0007683261064812541
      ]
    },
    {
      "children": [
        59
      ],
      "name": "mixamorig:RightHandPinky2_053",
      "rotation": [
        1.422944592377462e-06,
        0.0005731563433073461,
        -0.007554103620350361,
        0.999971330165863
      ],
      "scale": [
        0.9999998211860657,
        1.0,
        0.9999999403953552
      ],
      "translation": [
        0.00027730432339012623,
        0.028445806354284286,
        -1.3986743852001382e-07
      ]
    },
    {
      "children": [
        60
      ],
      "name": "mixamorig:RightHandPinky3_054",
      "rotation": [
        2.8275794150545153e-08,
        -2.1688198103220202e-05,
        -0.00031792873051017523,
        0.9999999403953552
      ],
      "translation": [
        -0.00014378107152879238,
        0.02198118343949318,
        3.032323547813576e-08
      ]
    },
    {
      "name": "mixamorig:RightHandPinky4_055",
      "rotation": [
        -1.7633396964811254e-08,
        2.6298021538195826e-09,
        -7.70819497120101e-09,
        1.0
      ],
      "scale": [
        1.0,
        0.9999999403953552,
        1.0
      ],
      "translation": [
        -0.00013352045789361,
        0.019284779205918312,
        5.043966666562483e-08
      ]
    },
    {
      "children": [
        62
      ],
      "name": "mixamorig:LeftUpLeg_056",
      "rotation": [
        -6.364190085150767e-06,
        0.008168620988726616,
        0.9999611377716064,
        0.0033440538682043552
      ],
      "scale": [
        1.0000017881393433,
        1.0,
        0.9999998807907104
      ],
      "translation": [
        0.10038991272449493,
        -0.055069804191589355,
        -0.006173975300043821
      ]
    },
    {
      "children": [
        63
      ],
      "name": "mixamorig:LeftLeg_057",
      "rotation": [
        -0.04339605197310448,
        -0.0002499782422091812,
        0.006965004839003086,
        0.9990336298942566
      ],
      "scale": [
        0.9999998211860657,
        1.0,
        1.0
      ],
      "translation": [
        -4.295941380405566e-09,
        0.4123043119907379,
        -9.381437848787755e-10
      ]
    },
    {
      "children": [
        64
      ],
      "name": "mixamorig:LeftFoot_00",
      "rotation": [
        0.5046784281730652,
        -0.05751348286867142,
        0.06937684118747711,
        0.8585912585258484
      ],
      "scale": [
        1.0,
        1.0,
        1.0000001192092896
      ],
      "translation": [
        1.3014869182370603e-09,
        0.42334476113319397,
        -2.1827872842550278e-10
      ]
    },
    {
      "children": [
        65
      ],
      "name": "mixamorig:LeftToeBase_058",
      "rotation": [
        0.29454854130744934,
        -0.029310669749975204,
        0.009039095602929592,
        0.9551441669464111
      ],
      "scale": [
        0.9999999403953552,
        1.0,
        0.9999998807907104
      ],
      "translation": [
        -1.210719347000122e-08,
        0.16279540956020355,
        -2.561137080192566e-09
      ]
    },
    {
      "name": "mixamorig:LeftToe_End_059",
      "rotation": [
        -3.23634559151742e-08,
        6.181652167924767e-08,
        -4.328029774569586e-07,
        1.0
      ],
      "scale": [
        1.000000238418579,
        1.0000001192092896,
        1.0000001192092896
      ],
      "translation": [
        1.0710209608078003e-08,
        0.06826018542051315,
        -1.1641532182693481e-10
      ]
    },
    {
      "children": [
        67
      ],
      "name": "mixamorig:RightUpLeg_060",
      "rotation": [
        0.0004447874962352216,
        0.008000405505299568,
        0.9999611973762512,
        -0.003664420684799552
      ],
      "scale": [
        1.0000020265579224,
        0.9999998807907104,
        1.0000001192092896
      ],
      "translation": [
        -0.10038991272449493,
        -0.055069781839847565,
        -0.0010641218395903707
      ]
    },
    {
      "children": [
        68
      ],
      "name": "mixamorig:RightLeg_061",
      "rotation": [
        -0.049065861850976944,
        0.00023340129700955003,
        -0.006915569305419922,
        0.9987716674804688
      ],
      "scale": [
        1.0,
        1.0000001192092896,
        1.0000001192092896
      ],
      "translation": [
        2.085926098516211e-09,
        0.41234609484672546,
        -2.764863893389702e-10
      ]
    },
    {
      "children": [
        69
      ],
      "name": "mixamorig:RightFoot_062",
      "rotation": [
        0.5182305574417114,
        0.053972743451595306,
        -0.06858882308006287,
        0.8507758975028992
      ],
      "scale": [
        0.9999998211860657,
        0.9999998211860657,
        0.9999998807907104
      ],
      "translation": [
        2.557499101385474e-09,
        0.4237527549266815,
        -2.3283064365386963e-09
      ]
    },
    {
      "children": [
        70
      ],
      "name": "mixamorig:RightToeBase_063",
      "rotation": [
        0.2851601541042328,
        0.038669317960739136,
        -0.011514857411384583,
        0.9576303958892822
      ],
      "scale": [
        0.9999999403953552,
        0.9999999403953552,
        1.0
      ],
      "translation": [
        -6.05359673500061e-09,
        0.16793614625930786,
        -9.42964106798172e-09
      ]
    },
    {
      "name": "mixamorig:RightToe_End_064",
      "rotation": [
        1.4551917004723691e-08,
        -6.752089376504955e-08,
        1.2773672608545894e-07,
        1.0
      ],
      "scale": [
        0.9999998807907104,
        0.9999999403953552,
        0.9999998807907104
      ],
      "translation": [
        -1.5083060134202242e-08,
        0.06765972077846527,
        2.3283064365386963e-10
      ]
    },
    {
      "matrix": [
        -1.1641532958148813e-07,
        -100.00001192092915,
        9.313204426438925e-08,
        0.0,
        -1.629206958645948e-05,
        9.313206323085348e-08,
        100.00001192092913,
        0.0,
        -100.0000042915335,
        1.164153055265686e-07,
        -1.6292068343581607e-05,
        0.0,
        2.036071293787245e-06,
        -6.146728896982978e-07,
        -2.746664599442161e-07,
        1.0
      ],
      "name": "Object_71"
    },
    {
      "mesh": 0,
      "name": "Object_72",
      "skin": 0
    },
    {
      "mesh": 1,
      "name": "Object_73",
      "skin": 0
    },
    {
      "matrix": [
        6.123234725683152e-15,
        -100.00001192092914,
        -1.9423069499735791e-13,
        0.0,
        -1.62920695865679e-05,
        -1.9423069599495944e-13,
        100.00001192092913,
        0.0,
        -100.0000042915335,
        -6.123202614323604e-15,
        -1.6292068343581607e-05,
        0.0,
        2.036071236943826e-06,
        -5.5879356919419365e-08,
        9.533146231514682e-13,
        1.0
      ],
      "name": "Object_74"
    },
    {
      "mesh": 2,
      "name": "Object_75",
      "skin": 0
    }
  ],
  "samplers": [
    {
      "magFilter": 9729,
      "minFilter": 9987,
      "wrapS": 10497,
      "wrapT": 10497
    }
  ],
  "scene": 0,
  "scenes": [
    {
      "name": "Sketchfab_Scene",
      "nodes": [
        0
      ]
    }
  ],
  "skins": [
    {
      "inverseBindMatrices": 14,
      "joints": [
        5,
        6,
        7,
        8,
        9,
        10,
        11,
        12,
        13,
        14,
        15,
        16,
        17,
        18,
        19,
        20,
        21,
        22,
        23,
        24,
        25,
        26,
        27,
        28,
        29,
        30,
        31,
        32,
        33,
        34,
        35,
        36,
        37,
        38,
        39,
        40,
        41,
        42,
        43,
        44,
        45,
        46,
        47,
        48,
        49,
        50,
        51,
        52,
        53,
        54,
        55,
        56,
        57,
        58,
        59,
        60,
        61,
        62,
        63,
        64,
        65,
        66,
        67,
        68,
        69,
        70
      ],
      "skeleton": 5
    }
  ],
  "textures": [
    {
      "sampler": 0,
      "source": 0
    },
    {
      "sampler": 0,
      "source": 1
    },
    {
      "sampler": 0,
      "source": 2
    },
    {
      "sampler": 0,
      "source": 3
    },
    {
      "sampler": 0,
      "source": 4
    }
  ]
}
